<svg width="174" height="40" viewBox="0 0 174 40" fill="none" xmlns="http://www.w3.org/2000/svg">
<g clip-path="url(#clip0_32_1281)">
<path d="M23.7683 29.1315H20.1873L17.5637 19.5943L11.8851 29.9939L6.20665 19.5943L3.58299 29.1315H0.00195312L5.11772 10.0059L11.8851 23.5188L18.6526 10.0059L23.7683 29.1315Z" fill="#1E1E1E"/>
<path d="M27.2539 19.9233C27.2539 14.581 30.8861 10.3203 37.0104 10.3203C43.1347 10.3203 46.7669 14.581 46.7669 19.9233C46.7669 25.2657 43.1347 29.5263 37.0104 29.5263C30.8861 29.5263 27.2539 25.2949 27.2539 19.9233ZM30.8057 19.9233C30.8057 23.3947 33.2247 26.0768 37.0104 26.0768C40.7961 26.0768 43.1931 23.3947 43.1931 19.9233C43.1931 16.4519 40.7742 13.7698 37.0104 13.7698C33.2467 13.7698 30.8057 16.4812 30.8057 19.9233Z" fill="#1E1E1E"/>
<path d="M51.3506 15.4726C51.3506 12.4982 53.7989 10.3203 57.6357 10.3203C60.1645 10.3203 62.0792 11.1608 63.8989 12.5566L62.2691 15.0269C60.9025 13.9233 59.4043 13.2655 57.4824 13.2655C56.0645 13.2655 54.5079 13.9525 54.5079 15.4726C54.5079 19.0756 64.6079 16.8174 64.6079 23.8406C64.6079 26.9174 61.4799 29.5263 57.6065 29.5263C54.9464 29.5263 52.5273 28.5763 50.7441 27.1585L52.3227 24.5275C53.7186 25.6311 55.7941 26.4204 57.7454 26.4204C59.5067 26.4204 61.1657 25.3679 61.1657 23.8406C61.1657 20.2084 51.3506 22.5543 51.3506 15.4726Z" fill="#1E1E1E"/>
<path d="M82.0512 29.1316H69.5029V10.7148H81.9196V13.872H73.084V18.1839H80.5822V21.2095H73.084V25.9744H82.0512V29.1316Z" fill="#1E1E1E"/>
<path d="M90.6528 10.3203H94.2339L89.1182 29.541H85.5371L90.6528 10.3203Z" fill="#1E1E1E"/>
<path d="M111.722 24.4691L113.301 27.2828C111.51 28.7005 109.091 29.519 106.438 29.519C100.307 29.519 96.6816 25.2876 96.6816 19.916C96.6816 14.5444 100.307 10.3203 106.431 10.3203C109.084 10.3203 111.51 11.1608 113.293 12.5566L111.715 15.3995C110.319 14.2959 108.375 13.6382 106.431 13.6382C102.645 13.6382 100.299 16.4812 100.299 19.9233C100.299 23.3655 102.667 26.2084 106.431 26.2084C108.375 26.2084 110.326 25.58 111.715 24.4691H111.722Z" fill="#1E1E1E"/>
<path d="M129.037 21.2095H121.122V29.1243H117.541V10.7148H121.122V17.972H129.037V10.7148H132.618V29.1316H129.037V21.2095Z" fill="#1E1E1E"/>
<path d="M149.713 22.2619V10.7148H153.294V22.1084C153.294 26.2668 150.502 29.5263 145.774 29.5263C141.045 29.5263 138.254 26.2668 138.254 22.1084V10.7148H141.835V22.2619C141.835 24.3959 143.443 26.2302 145.781 26.2302C148.119 26.2302 149.727 24.3885 149.727 22.2619H149.713Z" fill="#1E1E1E"/>
<path d="M162.509 10.7148H158.929V29.1316H162.509V10.7148Z" fill="#1E1E1E"/>
<path d="M161.981 19.6821L169.136 10.7148H173.316L166.03 19.6821L174.004 29.1316H169.48L161.981 19.6821Z" fill="#1E1E1E"/>
</g>
<defs>
<clipPath id="clip0_32_1281">
<rect width="174" height="38.137" fill="white" transform="translate(0.00195312 0.931641)"/>
</clipPath>
</defs>
</svg>
