<svg width="16" height="19" viewBox="0 0 16 19" fill="none" xmlns="http://www.w3.org/2000/svg">
<path fill-rule="evenodd" clip-rule="evenodd" d="M0 6.5964C0 8.0433 0.6171 10.1536 2.3142 10.6292C2.3733 10.6404 2.4565 10.6612 2.5156 10.6612C2.9073 10.6612 3.1327 9.646 3.1327 9.3582C3.1327 9.0161 2.1943 8.2871 2.1943 6.8618C2.1943 3.9001 4.6148 1.8018 7.7475 1.8018C10.4414 1.8018 12.4342 3.2263 12.4342 5.845C12.4342 7.8002 11.5917 11.4686 8.8626 11.4686C7.8778 11.4686 7.0352 10.8051 7.0352 9.8554C7.0352 8.4629 8.08 7.1136 8.08 5.6787C8.08 4.8058 7.5444 4.0984 6.5484 4.0984C5.1959 4.0984 4.3646 5.5132 4.3646 6.6284C4.3646 7.2471 4.4477 7.9313 4.7451 8.4957C4.1991 10.6828 3.0824 13.9426 3.0824 16.196C3.0824 16.8915 3.1903 17.5773 3.2614 18.2744L3.3685 18.3839L3.534 18.3279C5.5276 15.7875 5.4565 15.2903 6.3582 11.965C6.8458 12.8259 8.1024 13.2903 9.1 13.2903C13.2999 13.2903 15.1864 9.4773 15.1864 6.0424C15.188 2.3877 11.7947 0 8.0688 0C4.0104 0 0 2.518 0 6.5964Z" fill="black"/>
</svg>
