<svg width="17" height="17" viewBox="0 0 17 17" fill="none" xmlns="http://www.w3.org/2000/svg">
<path fill-rule="evenodd" clip-rule="evenodd" d="M16.1453 16.1177H12.7999V10.8818C12.7999 9.6348 12.7783 8.0281 11.0613 8.0281C9.3186 8.0281 9.0549 9.387 9.0549 10.7939V16.1177H5.7119V5.3518H8.919V6.8226H8.9653C9.4114 5.9769 10.5033 5.0848 12.1308 5.0848C15.5202 5.0848 16.1453 7.315 16.1453 10.2143V16.1177ZM1.9405 3.8809C1.4258 3.8809 0.9323 3.6765 0.5684 3.3126C0.2044 2.9487 0 2.4551 0 1.94047C0 1.42582 0.2044 0.93226 0.5684 0.56835C0.9323 0.20444 1.4258 0 1.9405 0C2.4551 0 2.9487 0.20444 3.3126 0.56835C3.6765 0.93226 3.8809 1.42582 3.8809 1.94047C3.8809 2.4551 3.6765 2.9487 3.3126 3.3126C2.9487 3.6765 2.4551 3.8809 1.9405 3.8809ZM0.2634 5.3518H3.6127V16.1177H0.2634V5.3518Z" fill="black"/>
</svg>
